<svg version="1.1"  x="0px" y="0px" viewBox="0 0 256 256" enable-background="new 0 0 256 256" xml:space="preserve">
<g><g><g><path fill="#000000" d="M216.2,12.6c-3.7,1.3-6.6,3.1-9.3,6c-3.1,3.2-4.7,6-5.9,10.1c-4.6,15.2-7.6,23.6-11.3,31.8l-1,2.3l-2.6-1c-1.7-0.7-3.5-2-5.3-3.8c-1.5-1.6-3.7-3.3-4.7-3.8c-1.9-0.9-2.3-1-6.2-0.5c-6.1,0.8-7.1,1.3-8.4,4.6c-1.3,3.1-1.1,3.8,1.7,6.9l1.5,1.7l3.6-0.4c2.9-0.3,3.8-0.7,4.9-1.7c0.7-0.7,1.7-1.3,2-1.3c1.1,0,3.8,3.1,3.8,4.2c0,2.1-1.1,2.3-7.5,1.7c-9.6-1-12.8-2.1-15-5.3c-0.7-1-1.6-1.9-2-2c-0.9-0.2-3.8,2.1-3.8,3.1c0,1.6,1.2,3.2,2.3,3.2c1.4,0,1.5,0.7,0.2,1.4c-1,0.6-7.6,2-9.2,2c-1.5,0-2.2,1.3-5.3,9.1c-1.5,3.7-3,7.2-3.4,7.8c-0.5,0.7-0.6,1.4-0.3,1.7c0.6,0.6,13.1-0.5,14.5-1.3c0.6-0.3,1.8-0.9,2.7-1.5l1.6-0.9l1.6,1.8c1.8,2.2,2.2,2,3.5-1.5c1.3-3.5,4.2-4.6,10-3.9l2.6,0.3l2.7,5.2c1.9,3.6,2.8,5.7,2.8,7c0,4-1.2,4.3-4.4,1.1c-2.1-2.1-2.8-2.4-5.6-2.6c-0.6,0-1.6-0.6-2.3-1.4l-1.2-1.3l-4.9,0.8c-2.7,0.5-7.3,0.8-10.2,0.8h-5.3l-3.4,5c-1.8,2.8-4.5,6.4-5.9,8.2c-4,5.1-4.3,5.7-3.9,11.5c0.3,5.7,0.8,6.9,4.8,12c2.8,3.5,8.1,8.2,11.7,10.3l2.2,1.3l3.1-2.6c5.4-4.6,6.8-4.4,8,1c1,4.5,1.2,5,4.4,8.8c1.6,1.8,3,4.2,3.8,6.4c1.4,3.5,1.4,3.5,0.5,5.8l-0.8,2.4l1.5,3.2c1.4,3.1,1.5,3.2,3.1,3.1c1.5-0.1,1.6,0,1.6,1.5c0,1.5-0.3,1.9-2.2,3c-2.1,1.3-2.2,1.3-2.3,4.1c-0.1,2.2,0.1,3.2,1,4.8c1.8,3,2.8,3.7,5.6,4.1l2.5,0.3l2.1,4.9c3.1,7.2,5.8,14.6,8.4,23.4c2.6,9.1,3.9,11.6,7.5,15.3c12.6,12.7,33.7,6.9,38.2-10.5c3.1-11.9-4-23.9-16.6-27.7c-2.1-0.6-6.5-2-9.7-3c-6.8-2.1-20.7-7.5-20.7-8c0-0.6,3.7-4.1,5.7-5.5c1.1-0.7,2.6-2.2,3.4-3.4c1.4-2.1,1.5-2.7,0.9-9c-0.3-3.2-0.2-3.6,1-5.3c2.5-3.7,9-17.8,9.7-21.1c0.6-2.9-0.4-4.6-3.6-6.4c-4.2-2.3-4.2-2.2-3.5-7.6c0.4-2.5,0.8-4.9,1-5.2c0.5-0.7,1.4,0.2,2.9,3.2c1,1.8,1.1,1.9,3,1.6c1.1-0.1,2.9-0.6,3.9-1.1l1.9-0.8l-1.5-1.6c-2.2-2.3-2.6-3.4-2-5.4c0.3-1,0.8-1.8,1.2-1.8c1.1,0,3.5,1.8,3.8,2.9s2.6,2.4,4.1,2.4c0.7,0,1.1-0.5,1.5-1.9c0.3-1,1-2.5,1.5-3.3c0.5-0.8,0.9-1.8,0.9-2.3c0-0.4-1.3-1.8-2.8-2.9c-3.8-2.9-4.3-4-3.6-7.2c0.7-2.8,0.5-3.3-2.6-6.3c-2.1-2.1-2.2-2.2-2.2-5.1c0-2.8,0-3-2.8-6.1C206,78.6,198,68.4,198,67.8c0-1,15.8-6.9,26.8-10c7.8-2.2,10.7-3.7,14.4-7.3c8.9-8.7,9.1-22.7,0.6-31.7c-3-3.2-5.6-4.8-9.7-6.1C226.2,11.5,219.6,11.5,216.2,12.6z M227.6,26.3c2.7,1.4,4.5,4,4.8,6.8c0.3,3.9-0.2,5.7-2.5,8c-3.8,3.8-8.9,4-12.8,0.6c-3.4-2.9-4.3-7.1-2.6-10.8C216.9,25.7,222.6,23.7,227.6,26.3z M217.6,207c5.6,3.6,5.6,11.9,0,15.9c-1.8,1.3-2.6,1.5-5.2,1.5c-2.5,0-3.4-0.2-5-1.3c-4.9-3.2-6-9.8-2.4-13.9c2.4-2.8,4.1-3.6,7.5-3.6C214.8,205.6,215.7,205.8,217.6,207z"/><path fill="#000000" d="M28.3,12.8c-3.9,0.7-8.5,3.2-11.5,6.2c-9,9-9,23.2,0,32.2c3.6,3.6,6.9,5.2,16.2,7.9c9.8,2.9,26.7,9.3,26.7,10c0,0.2-0.8,1.4-1.8,2.6c-1,1.3-2.5,3.9-3.4,5.8c-0.9,1.9-2.3,4.4-3.2,5.5c-2.2,2.8-3.7,5.9-4.9,10.2c-0.5,2.1-1.8,5.2-2.7,7c-1.9,3.7-3.8,12.3-4.6,21c-0.7,7.7,0,9.6,5.6,15.5c4,4.2,8.2,10.3,8.8,12.8c0.3,1.1,0,1.7-1.7,3.5c-1.6,1.7-2,2.5-2,3.9c0,3,2.2,6.6,6.6,10.9l4,3.9l-0.2,7.5l-0.3,7.5l1.9,1.9c1,1,3.4,3,5.3,4.4c1.9,1.5,3.9,3.1,4.5,3.8c1.3,1.5,2.9,4.5,3.6,7c0.4,1.7,1.1,2.3,4.6,4.8c2.2,1.6,5.2,3.5,6.7,4.4l2.7,1.5l-2.8-3c-1.5-1.7-3.4-3.8-4.1-4.7c-1.7-2.2-3.6-7.5-3.6-10c0-1.7,0.3-2.1,3.2-4.7c4.8-4.2,14.8-17.1,16.8-21.8c1.3-2.9,1.7-7.9,0.8-9.5c-0.6-1.1-1-1.2-5.5-1.5c-6-0.3-8.4-1.3-12.4-5.2c-1.6-1.6-3.6-3.4-4.3-4.1c-0.7-0.7-1.6-2.1-1.9-3.2c-0.4-1.5-1.4-2.6-4.2-4.9c-2.9-2.4-3.9-3.7-5.5-6.7c-1.9-3.6-1.9-3.7-3.8-3.7c-1.1,0-3.3,0.2-4.9,0.5c-5.5,0.9-8.5-1.3-8.5-6.2c0-3.3-0.8-5.1-3.9-8.6c-1.4-1.5-2.4-2.9-2.4-3.1s0.7-1.1,1.5-1.9c2.6-2.5,6-8.1,6.7-10.9c0.3-1.5,1.8-4.9,3.2-7.5l2.5-4.9l5.6-2.8c3.6-1.8,7.3-3.3,10.2-4c8.2-2,12.7-4.6,12.7-7.3c0-1.6-1.8-4.9-3.7-7.1c-1.6-1.7-1.8-2.4-1.8-4c0.1-3.2,1.4-4.3,6.5-6c2.5-0.8,5-1.8,5.5-2c1.1-0.7,1.3-3.4,0.3-3.8c-0.7-0.2-11,2.4-12.8,3.3c-0.6,0.2-1.6,1.4-2.1,2.5c-1.2,2.1-6.7,8.6-7.3,8.6c-0.2,0-1.2-1.9-2.3-4.3c-4.1-8.8-8-19.6-10.6-29.1c-1.7-6.3-3.6-10-6.9-13.4c-3.2-3.3-7.3-5.6-11.7-6.5C33.7,12.2,31.8,12.1,28.3,12.8z M36.9,26.6c2,0.8,4.4,3.6,5.2,5.9c2.3,6.9-4.4,13.9-11.5,12c-7.8-2.1-9.5-12.8-2.7-17.1C30.4,25.7,34.1,25.4,36.9,26.6z"/><path fill="#000000" d="M120.3,15.2c-12.5,1-25.7,4.3-37,9.3C75.4,28,67,32.9,67,34.1c0,0.8,4.2,13.2,4.6,13.5c0.1,0.1,2.2-1,4.6-2.4c17-10.5,34.1-15.4,53.7-15.4c10.3,0,18,1.1,27.5,3.7c8.2,2.3,18.9,7.2,25.2,11.3c1.1,0.7,2,1,2.2,0.8c0.2-0.2,1.4-3.5,2.6-7.2l2.2-6.7l-1.6-1c-3.1-1.9-14.3-7.2-19-9C153.9,16.2,136.7,13.9,120.3,15.2z"/><path fill="#000000" d="M125.2,44.2c-0.8,0.1-4.1,0.5-7.3,0.9c-8.4,1-14.2,2.1-15.2,2.9c-0.8,0.6-0.8,0.8,1,2.4c1,1,1.8,1.9,1.8,1.9c0,0.1-0.6,1.3-1.5,2.8c-0.8,1.5-1.5,2.9-1.5,3.3s0.9,1,2.1,1.5c1.9,0.8,2.4,0.8,7.4,0.2c6.2-0.8,8.8-2,10.7-5c1.1-1.7,1.6-2,5.5-3.2c2.3-0.7,6.3-1.5,8.7-1.7c4-0.3,8.1-1.2,9.3-1.8c0.2-0.1-0.5-0.5-1.7-0.9c-1.2-0.3-4-1.3-6.2-2.1C134.1,43.9,130.3,43.5,125.2,44.2z"/><path fill="#000000" d="M219.4,70c-3.6,1.2-6.8,2.4-7,2.6c-0.2,0.2,0.6,2,1.8,3.9c7.6,11.8,13.2,28.1,14.9,43c2,19.5-2.3,41.4-11.7,57.9c-1.1,1.9-1.8,3.7-1.6,3.8c0.2,0.2,1.8,0.7,3.6,1.2c1.8,0.4,4.7,1.6,6.6,2.4l3.5,1.6l2-3.7c8.5-16.1,12.8-33.9,12.8-53.1c0-16.7-3-31.5-9.5-46.4c-2.2-5-7.9-15.5-8.4-15.4C226.1,67.8,223,68.8,219.4,70z"/><path fill="#000000" d="M29.6,73.2c-14.9,26.1-18.7,58.9-10.3,88.1c8.9,31,31.1,57.4,60.1,71.5c16.5,8,31.5,11.4,50.2,11.4c18.2,0,33.3-3.3,48.8-10.7l5.5-2.6l-1.4-3c-0.8-1.7-1.9-4.8-2.5-7.1c-0.6-2.2-1.2-4-1.4-3.9c-0.1,0.1-2.9,1.4-6,3c-9.4,4.6-20.2,7.7-31.2,9.1c-6.1,0.8-23,0.4-28.5-0.7c-20.3-3.8-37.5-12.5-51.9-26.1C27,170,19.8,119.2,43.4,79.1c1.5-2.5,2.6-4.7,2.5-4.8c-0.4-0.4-12.7-4.6-13.5-4.6C31.9,69.7,30.9,71,29.6,73.2z"/></g></g></g>
</svg>