<svg version="1.1" x="0px" y="0px" viewBox="0 0 256 256" enable-background="new 0 0 256 256" xml:space="preserve">
<g><g><g><g id="Layer_2_19_"><g><path fill="#000000" d="M238.3,88.2c-1.9-4.9-7.3-7.4-12.2-5.5c-4.9,1.9-7.4,7.3-5.5,12.2c9.1,24.1,8.5,50.4-1.6,74.1c-10.4,24.3-29.7,43.1-54.2,52.9c-24.5,9.8-51.4,9.5-75.7-0.9c-7.1-3-13.6-6.8-19.7-11.2c-14.8-10.8-26.3-25.6-33.2-43c-9.8-24.5-9.5-51.4,0.9-75.8C47.5,66.6,66.7,47.8,91.3,38c23.5-9.4,49.1-9.5,72.6-0.3l-6.7,11.4c-1.9,3.1-0.4,5.2,3.2,4.6l31.9-5.2c3.6-0.6,5.5-3.9,4.3-7.3l-10.8-30.5c-1.2-3.4-3.7-3.7-5.6-0.5l-6.5,10.9c-28.7-12.1-60.4-12.4-89.4-0.8C55,32.1,32,54.5,19.6,83.5c-12.4,28.9-12.8,61-1.1,90.3c8.3,20.8,22,38.4,39.6,51.3c7.2,5.3,15,9.8,23.4,13.3c28.9,12.4,61,12.8,90.3,1.1c29.3-11.7,52.2-34.1,64.6-63C248.5,148.2,249.2,116.9,238.3,88.2z"/><path fill="#000000" d="M123.8,54.2c-4.2,0-7.7,3.4-7.7,7.7v76.5l70,36.2c1.1,0.6,2.3,0.9,3.5,0.9c2.8,0,5.5-1.5,6.8-4.1c2-3.8,0.5-8.4-3.3-10.4L131.5,129V61.9C131.5,57.6,128.1,54.2,123.8,54.2z"/></g></g></g><g></g><g></g><g></g><g></g><g></g><g></g><g></g><g></g><g></g><g></g><g></g><g></g><g></g><g></g><g></g></g></g>
</svg>