<svg version="1.1" x="0px" y="0px" viewBox="0 0 256 256" enable-background="new 0 0 256 256" xml:space="preserve">
<g><g><path fill="#000000" d="M201.5,128c-1.8-16.6-15.9-29.5-33-29.5c-7.8,0-15,2.7-20.6,7.2C141.5,84.5,121.8,69,98.5,69C70,69,46.9,92.1,46.9,120.6c0,2.8,0.2,5.5,0.7,8.1c-13.1,3.1-22.8,14.8-22.8,28.7c0,9.9,4.9,18.7,12.4,24c-3.7,3.3-6.7,7.3-8.9,11.8c-11.1-8-18.3-21.1-18.3-35.8c0-16.4,8.9-30.7,22.1-38.3c0.8-36,30.2-64.9,66.4-64.9c23.8,0,44.8,12.6,56.4,31.5c4.3-1.3,8.9-2,13.6-2c20.5,0,38,12.9,44.9,31.1c18.8,5.1,32.6,22.3,32.6,42.7c0,24.4-19.8,44.3-44.3,44.3h-30.2c-1.1-5.4-3.4-10.5-6.6-14.8h36.9c16.3,0,29.5-13.2,29.5-29.5c0-16.3-13.2-29.5-29.5-29.5H201.5z M39.5,209.1c0-9.6,6.2-17.8,14.8-20.9c1.3-17.2,15.6-30.8,33.1-30.8c12.1,0,22.7,6.5,28.5,16.1c2.6-0.9,5.5-1.4,8.4-1.4c12.2,0,22.4,8.4,25.1,19.8c4.9,4,8.1,10.2,8.1,17.1c0,12.2-9.9,22.1-22.2,22.1H61.7C49.3,231.3,39.5,221.3,39.5,209.1L39.5,209.1z M168.6,24.8c12.1,0,22.7,6.5,28.5,16.1c2.6-0.9,5.5-1.4,8.4-1.4c12.2,0,22.4,8.4,25.1,19.8c4.9,4,8.1,10.2,8.1,17.1c0,10.5-7.4,19.3-17.2,21.6C210.3,80.5,190.8,69,168.6,69c-2.4,0-4.8,0.1-7.2,0.4c-6.8-8.4-15.2-15.3-24.8-20.4C140.5,35,153.3,24.8,168.6,24.8L168.6,24.8z"/><path fill="#000000" d="M201.5,128c-1.8-16.6-15.9-29.5-33-29.5c-7.8,0-15,2.7-20.6,7.2C141.5,84.5,121.8,69,98.5,69C70,69,46.9,92.1,46.9,120.6c0,2.8,0.2,5.5,0.7,8.1c-13.1,3.1-22.8,14.8-22.8,28.7c0,9.9,4.9,18.7,12.4,24c-3.7,3.3-6.7,7.3-8.9,11.8c-11.1-8-18.3-21.1-18.3-35.8c0-16.4,8.9-30.7,22.1-38.3c0.8-36,30.2-64.9,66.4-64.9c23.8,0,44.8,12.6,56.4,31.5c4.3-1.3,8.9-2,13.6-2c20.5,0,38,12.9,44.9,31.1c18.8,5.1,32.6,22.3,32.6,42.7c0,24.4-19.8,44.3-44.3,44.3h-30.2c-1.1-5.4-3.4-10.5-6.6-14.8h36.9c16.3,0,29.5-13.2,29.5-29.5c0-16.3-13.2-29.5-29.5-29.5H201.5z M39.5,209.1c0-9.6,6.2-17.8,14.8-20.9c1.3-17.2,15.6-30.8,33.1-30.8c12.1,0,22.7,6.5,28.5,16.1c2.6-0.9,5.5-1.4,8.4-1.4c12.2,0,22.4,8.4,25.1,19.8c4.9,4,8.1,10.2,8.1,17.1c0,12.2-9.9,22.1-22.2,22.1H61.7C49.3,231.3,39.5,221.3,39.5,209.1L39.5,209.1z M168.6,24.8c12.1,0,22.7,6.5,28.5,16.1c2.6-0.9,5.5-1.4,8.4-1.4c12.2,0,22.4,8.4,25.1,19.8c4.9,4,8.1,10.2,8.1,17.1c0,10.5-7.4,19.3-17.2,21.6C210.3,80.5,190.8,69,168.6,69c-2.4,0-4.8,0.1-7.2,0.4c-6.8-8.4-15.2-15.3-24.8-20.4C140.5,35,153.3,24.8,168.6,24.8L168.6,24.8z"/></g></g>
</svg>