<svg version="1.1" x="0px" y="0px" viewBox="0 0 256 256" enable-background="new 0 0 256 256" xml:space="preserve">
  <g><g><g><path fill="#000000" d="M120.7,10.5c-7.6,1.1-16.2,4.6-22.3,9.2c-14,10.4-21.4,26-20.7,43.1c0.5,10.7-0.3,8.9,26.2,61.7c13,25.9,23.7,47.3,23.9,47.5c0.2,0.2,11-20.9,23.9-46.9c17.3-34.7,23.9-48.3,24.7-51.1c6.5-22.4-4-46.8-24.7-58C142.5,11,131,9,120.7,10.5z M134.7,37.4c6.2,1.8,12.2,6.5,15.1,12c5.2,9.8,3.5,21.8-4.2,29.5c-4.9,4.9-11,7.4-18,7.3c-15.5-0.1-27.3-14.8-24-29.8C106.8,42,120.7,33.5,134.7,37.4z"/><path fill="#000000" d="M84,112.8c-14.8,11.1-24.8,26.7-28.6,44.6c-1.2,5.9-1.7,16.7-1,23.2c3.6,30.5,25.6,55.7,55.5,63.2c21.5,5.4,44.2,0.9,62.2-12.4c1.9-1.4,5.8-4.8,8.5-7.7c18.7-18.8,25.8-46.5,18.4-72c-3.6-12.3-10.8-24.3-19.9-33c-3.5-3.3-10.5-8.8-11.3-8.8c-0.3,0-1.8,2.4-1.8,2.9c0,0.1,1.8,1.6,4.1,3.3c13.9,10.4,23.7,25.9,27,43c0.6,2.9,0.8,6.4,0.8,12.2l0,8.1L196,182c-2.8,3.3-4.5,5.9-7.9,11.8c-3.6,6.5-6.9,11.3-7.2,11c-0.1-0.2-0.3-4.1-0.3-8.7c0-7.3-0.1-8.6-0.9-10.1c-1.6-3.3-2.4-3.2-9.5,0.9c-2.4,1.4-5.2,2.6-6,2.8c-1.4,0.3-1.8,0.1-3.6-2c-2.5-2.8-5-7.3-5-9.1c0-0.7,1.4-4.9,3-9.4c1.7-4.4,3.2-8.7,3.5-9.5c0.7-2.4-0.3-6.2-3.3-12.1l-2.8-5.6l1.7-5c1.7-4.8,1.7-5,0.9-5.6c-0.5-0.4-1-0.6-1.1-0.6c-0.2,0-6.7,12.8-14.5,28.5l-14.2,28.5l-9.6-19.3l-9.6-19.2l-1.5,0.7c-3,1.6-7.8,5-8.7,6.2c-0.6,0.7-3,2.3-5.6,3.7c-4.1,2.1-5,2.4-7.4,2.4c-1.8,0-3.3-0.3-4.3-0.8c-1.4-0.7-1.9-0.7-4.6-0.3c-5.1,0.9-4.9,0.5-2.3,4.7c1.3,2.1,3.5,4.9,4.9,6.4c2.4,2.4,2.8,3.1,5.6,10.6l3,8l7.6,0.2l7.6,0.2l10.6,6.1c14.3,8.3,22.5,13.2,23,14.1c0.8,1.2-1.2,4.5-4.5,7.6c-3.6,3.3-8.9,6.9-16.9,11.2c-3.4,1.8-6.3,3.4-6.4,3.5c-0.1,0.1,0.5,1.5,1.2,3.2c0.8,1.7,1.4,3.1,1.3,3.3c-0.1,0.1-0.7,0-1.4-0.4c-0.9-0.4-1.3-1.2-1.9-3.6l-0.7-3l-4.7-2.8c-2.7-1.6-4.8-3.2-5-3.8c-0.2-0.6-0.2-2.8-0.1-4.9c0.2-3.3,0.1-4.1-0.5-5.1c-1.5-2.3-4.1-4.9-7.5-7.5c-2.1-1.6-3.9-3.4-4.7-4.7c-1.2-2-1.2-2.4-1.4-10c-0.1-7.4-0.2-7.9-1.2-9c-0.6-0.6-2.6-3.5-4.6-6.2c-1.9-2.8-4.8-6.5-6.3-8.3c-4.3-5-5.8-10.7-5.4-21.4c0.2-7.6,0.3-7.7,6.4-14.7c3.8-4.3,16.7-20.5,17.7-22.1c0.3-0.5-1-3.8-1.5-3.8C88.9,109.1,86.6,110.7,84,112.8z"/></g></g></g>
</svg>