<svg x="0px" y="0px" viewBox="0 0 256 256" enable-background="new 0 0 256 256" xml:space="preserve">
<g><g><g><path fill="#000000" d="M221.2,70.1c-6.7,2.3-11.2,7.9-12.5,15.1c-0.5,2.6-0.2,5.5,0.8,9c0.2,0.8-4.4,5.4-25.6,25.1c-14.2,13.2-26.8,24.9-28,25.9l-2.1,1.9l-2.1-1c-3.4-1.6-6.4-2.1-9.7-1.8c-1.7,0.1-3.4,0.4-3.7,0.5c-0.7,0.2-5.4-5.4-16.2-19.4l-2.3-3l0.9-2.7c3.4-9.8-2.2-20.8-12.4-23.9c-10.8-3.3-22,3.6-24.1,14.9c-0.3,1.6-0.4,3.6-0.2,4.4c0.2,1.5,0,1.8-21.7,18.7c-12.1,9.5-22.3,17.5-22.8,17.7c-0.5,0.3-1.5,0.1-2.8-0.6c-2.8-1.4-7.3-2-10.7-1.5C15.8,151.2,8.5,161,10.3,171c1.1,6.3,5,11.6,10.6,14.3c2.6,1.2,3.3,1.4,7.9,1.4c4.5,0,5.4-0.1,7.9-1.3c6.3-2.9,10.6-9,11-15.6c0.1-1.9,0-4.3-0.3-5.3l-0.5-1.8l21-16.5c11.5-9,21.3-16.7,21.8-17c0.7-0.5,1.4-0.3,4.5,1.3c4.6,2.4,7.9,2.9,12.7,1.8c1.9-0.4,3.5-0.7,3.5-0.6c0,0,3.8,4.8,8.4,10.6l8.4,10.6l-1.3,3.2c-3.2,8-0.7,16.9,6.3,22.2c3.5,2.6,6.5,3.6,11.5,3.6c3.8,0,4.4-0.1,7.8-1.8c4.3-2.1,7.1-5,9.1-9.1c1.1-2.3,1.3-3.4,1.3-7.9l0-5.3l28.4-26.5c19.4-18.1,28.7-26.4,29.1-26.2c3.8,1.5,4.9,1.7,9,1.5c3.7-0.2,4.8-0.4,7.3-1.7c3.6-1.8,7.1-5.6,8.9-9.3c1.2-2.4,1.3-3.4,1.3-7.6c0-4.3-0.1-5.2-1.3-7.6c-1.8-3.9-5.2-7.4-9.1-9.3c-2.8-1.4-3.7-1.6-7.6-1.7C224.8,69.2,223,69.4,221.2,70.1z M231.5,84c1.4,1.4,1.7,2,1.7,3.9c0,1.9-0.2,2.5-1.7,3.9c-1.4,1.4-2,1.7-3.6,1.7c-1.1,0-2.7-0.3-3.4-0.7c-1.8-0.9-3.2-3.7-2.7-5.7c0.7-3.2,2.6-4.7,6-4.7C229.5,82.4,230.1,82.6,231.5,84z M105.7,108.9c3.6,1.9,3.9,8,0.4,9.8c-2,1-5.4,0.9-6.9-0.3c-1.8-1.4-2.5-3.9-1.8-6C98.6,108.7,102.3,107.2,105.7,108.9z M146,158c2,1,2.9,2.6,2.9,5c0,4.9-4.8,7.5-8.8,4.8C134.2,163.8,139.7,154.7,146,158z M30.9,162.8c0.9,0.3,2.1,1.3,2.7,2c1.7,2.1,1.2,5.7-0.9,7.6c-2.8,2.5-7.4,1.5-9.1-1.9c-1.4-3,0.2-6.9,3.4-7.8C29.1,162,29.1,162,30.9,162.8z"/></g></g></g>
</svg>