<svg version="1.1" x="0px" y="0px" viewBox="0 0 256 256" enable-background="new 0 0 256 256" xml:space="preserve">
<g><g><path fill="#000000" d="M128,51c-22.8,0-41.2,18.4-41.2,41.1c0,22.6,18.4,41,41.2,41c22.8,0,41.2-18.4,41.2-41C169.2,69.4,150.8,51,128,51z M128,66.5c14.2,0,25.7,11.4,25.7,25.6c0,14.2-11.5,25.6-25.7,25.6c-14.2,0-25.7-11.4-25.7-25.6C102.3,77.9,113.8,66.5,128,66.5z M128,25.4c39.8,0,66.9,27,66.9,66.8C194.9,131.8,128,205,128,205S61.1,131.8,61.1,92.1C61.1,52.4,88.2,25.4,128,25.4z M128,225.5c0,0,82.3-88,82.3-133.4c0-45.4-36.8-82.1-82.3-82.1c-45.4,0-82.3,36.7-82.3,82.1C45.7,137.4,128,225.5,128,225.5z M25.1,215.2c0,17,48.9,30.8,102.9,30.8c54,0,102.9-13.8,102.9-30.8c0-13.7-13.2-25.4-52.8-29.4c-4.2,5.2-8.2,10-11.8,14.4c37,1.5,49.2,7.7,49.2,15c0,8.5-41.4,16.4-87.4,16.4c-46.3,0-87.4-7.9-87.4-16.4c0-7.3,12.2-13.5,49.2-15c-3.6-4.3-7.6-9.1-11.8-14.4C38.4,189.8,25.1,201.5,25.1,215.2z"/></g></g>
</svg>