<svg version="1.1" xmlns="http://www.w3.org/2000/svg" xmlns:xlink="http://www.w3.org/1999/xlink" x="0px" y="0px" viewBox="0 0 256 256" enable-background="new 0 0 256 256" xml:space="preserve">
<g><g><g><g><path fill="#000000" d="M128,65.9c3.7,0,6.2-2.5,6.2-6.2V34.8c0-3.7-2.5-6.2-6.2-6.2c-3.8,0-6.2,2.5-6.2,6.2v24.8C121.8,63.4,124.3,65.9,128,65.9z"/><path fill="#000000" d="M193.8,89.5l17.4-17.4c2.5-2.5,2.5-6.2,0-8.7c-2.5-2.5-6.2-2.5-8.7,0l-17.4,17.4c-2.5,2.5-2.5,6.2,0,8.7C187.6,92,191.3,92,193.8,89.5z"/><path fill="#000000" d="M59.7,152.8h136.6c0-2.5,0-3.7,0-6.2c0-37.3-31-68.3-68.3-68.3c-37.3,0-68.3,31-68.3,68.3C59.7,149.1,59.7,150.3,59.7,152.8z"/><path fill="#000000" d="M208.7,146.7c0,3.7,2.5,6.2,6.2,6.2h24.8c3.7,0,6.2-2.5,6.2-6.2c0-3.8-2.5-6.2-6.2-6.2H215C212.4,140.4,208.7,144.1,208.7,146.7z"/><path fill="#000000" d="M239.8,177.7H164l-14.9,12.4l-22.3,18.6l-19.9-18.6L92,177.7H16.2c-2.5,0-6.2,2.5-6.2,6.2c0,3.8,3.7,6.2,6.2,6.2h68.3l43.4,37.3l43.4-37.3h68.3c3.7,0,6.2-2.5,6.2-6.2C245.9,180.1,243.5,177.7,239.8,177.7z"/><path fill="#000000" d="M62.2,89.5c2.5,2.5,6.2,2.5,8.7,0c2.5-2.5,2.5-6.2,0-8.7L53.5,63.4c-2.5-2.5-6.2-2.5-8.7,0s-2.5,6.2,0,8.7L62.2,89.5z"/><path fill="#000000" d="M16.2,152.8H41c2.5,0,6.2-2.5,6.2-6.2c0-2.5-2.5-6.2-6.2-6.2H16.2c-3.7,0-6.2,3.7-6.2,6.2C10.1,150.3,12.5,152.8,16.2,152.8z"/></g></g><g></g><g></g><g></g><g></g><g></g><g></g><g></g><g></g><g></g><g></g><g></g><g></g><g></g><g></g><g></g></g></g>
</svg>