<svg version="1.1" x="0px" y="0px" viewBox="0 0 256 256" enable-background="new 0 0 256 256" xml:space="preserve">
<g><g><g><path fill="#000000" d="M40.4,3.7C31.1,6,23.5,13.3,21.2,22.4c-0.6,2.4-0.7,13.7-0.7,85.7v82.9l-2.2,2.6c-2.6,3.1-6.3,10.2-7.4,14.6c-1.2,4.8-1.1,12.9,0.3,17.8c1.6,5.9,4.5,11,8.7,15.4c7.7,8.2,17.7,12.3,28.5,11.6c9.8-0.6,16.9-3.9,23.9-11c3.5-3.5,4.6-5,6.5-8.8c2.9-6,3.9-10.1,3.9-16.6c0-8.5-3-16.9-8.2-22.8l-2.2-2.5v-82.6c0-58.4-0.1-83.3-0.5-85.1c-0.9-4.2-3.2-8.5-6.6-12.1C58.7,4.4,49.3,1.5,40.4,3.7z M51.8,14.5c3.1,1,6.9,4.5,8.5,7.9l1.4,2.8l0.2,85.2c0.1,46.9,0.3,85.3,0.4,85.3c2.4,2.3,6.1,7,7.1,9c4.8,9.5,3.3,21.2-3.8,29.1c-13.8,15.3-39.2,9.2-44.5-10.6c-1.6-5.7-0.6-13.6,2.1-18.7c1-1.9,4.9-6.7,7-8.8c0.1,0,0.2-38.4,0.4-85.3L31,25.2l1.1-2.4c0.6-1.4,2-3.3,2.9-4.3C39.7,13.6,45.2,12.3,51.8,14.5z"/><path fill="#000000" d="M44.1,97.2c-0.6,0.2-1.6,1.2-2.1,2.1c-1,1.6-1,2.4-1,52v50.4l-1.5,0.8c-2.5,1.3-5.8,4.6-7.2,7.3c-1.1,2.1-1.3,3.1-1.3,6.6c0,3.6,0.2,4.5,1.4,6.9c1.5,3,4.1,5.6,7.3,7.3c1.8,0.9,2.8,1.1,6.7,1.1c3.9,0,5-0.2,6.7-1.1c3.2-1.7,5.8-4.3,7.3-7.3c1.9-3.7,2-9.3,0.2-13c-1.3-2.9-3.9-5.7-6.8-7.4l-2.1-1.2v-50c0-54.8,0.1-52.6-2.9-54.1C47.2,96.6,45.7,96.6,44.1,97.2z M49.4,212.5c1.9,1.5,2.5,3.9,1.6,6c-0.7,1.8-2.9,3.3-4.7,3.3c-3,0-5.8-3.4-5.1-6.4C42,212.1,46.7,210.4,49.4,212.5z"/><path fill="#000000" d="M137.8,3.4c-0.6,0.2-1.6,1.2-2.1,2.1c-0.8,1.4-1,2.5-1,8.3v6.7l-7.4-3.7c-8.4-4.1-9.4-4.2-11.7-1.7c-1.7,1.9-1.9,4.6-0.3,6.5c0.6,0.8,4.6,3.1,10.3,6l9.2,4.6v4.4c0,2.4-0.1,4.4-0.2,4.4c-0.1,0-3.3-1.6-7.1-3.4c-6.9-3.4-8.5-3.9-10.4-2.9c-2.8,1.4-3.7,5.5-1.9,7.8c0.5,0.6,5.1,3.3,10.3,5.8l9.3,4.6v7.4v7.4l-20.9,12c-11.5,6.6-21.6,12.7-22.5,13.5l-1.6,1.5v28.1c0,26,0,28.1,0.9,29.1c0.4,0.5,10.5,6.6,22.3,13.4l21.5,12.4l0.1,7.4l0.1,7.4l-9.3,4.6c-5.7,2.9-9.6,5.1-10.3,6c-1.5,1.9-1.4,4.7,0.3,6.5c2.4,2.6,3.5,2.4,11.7-1.6l7.4-3.7v4.6v4.6l-9.4,4.7c-5.1,2.6-9.8,5.2-10.2,5.7c-0.5,0.6-0.9,2-0.9,3.2c0,1.7,0.3,2.4,1.4,3.6c2.2,2.2,3.9,2,11.8-2c3.8-1.9,6.9-3.4,7.1-3.4c0.1,0,0.2,3,0.2,6.6c0,7.4,0.4,9,2.9,10.3c1.8,0.9,3.1,0.9,4.9,0c2.5-1.3,2.9-2.9,2.9-10.2v-6.6l6.9,3.4c8.1,4,9.9,4.3,12.2,2c1-1,1.4-1.9,1.4-3.2c0-3.5-0.5-4-10.8-9.1l-9.7-4.8v-4.6v-4.6l7.5,3.7c7.2,3.6,7.6,3.7,9.3,3.1c3.5-1.1,4.9-5.2,2.7-8c-0.6-0.8-4.6-3.1-10.3-6l-9.3-4.6l0.1-7.4l0.1-7.4l19.7-11.4l19.7-11.4l6.2,3.6l6.2,3.6v3.4c0,1.8-0.2,6.8-0.4,11.2l-0.4,7.8l1.6,1.6c1.1,1.2,2,1.6,3.2,1.6c2.3,0,4.3-1.1,5-2.8c0.4-1,1.5-12,1.6-16.4c0-0.2,1.8,0.7,4,2l4,2.3l-0.3,4.2c-0.1,2.3-0.4,7.3-0.6,11c-0.3,6.4-0.2,6.8,0.7,8.1c1.5,1.9,3.9,2.6,6.1,1.7c2.6-1.1,3.1-2.6,3.7-11c0.3-4.1,0.6-7.6,0.7-7.7c0.1-0.1,2.8,1.3,5.9,3.1c3.5,2,6.3,3.2,7.2,3.2c3,0,5.3-2.3,5.3-5.6c0-2.1-2.1-4-8.2-7.5c-2.8-1.6-4.9-3-4.6-3.2c0.2-0.2,3.3-2.2,6.8-4.5c5.8-3.8,6.5-4.4,7-6.1c0.4-1.6,0.4-2.2-0.3-3.7c-0.9-2-3.6-3.5-5.4-3.1c-0.7,0.2-5.1,2.8-9.8,5.9c-4.7,3.1-8.8,5.6-9.1,5.6c-0.3,0-2.2-1-4.2-2.2l-3.6-2.2l6.3-4.1c3.5-2.3,6.7-4.6,7.2-5.1c2.8-3.2,0.2-8.5-4.2-8.5c-0.6,0-5.2,2.6-10.3,5.9l-9.1,5.9l-6.3-3.6l-6.4-3.6v-23V99.8l6.1-3.5c3.4-1.9,6.3-3.5,6.6-3.5c0.2,0,4.3,2.5,8.9,5.5c4.6,3.1,9,5.7,9.8,5.9c2,0.5,4.5-0.9,5.5-3c0.7-1.5,0.7-2.1,0.3-3.7c-0.5-1.8-1.2-2.3-7.2-6.3c-3.7-2.4-6.7-4.4-6.8-4.5s1.6-1.2,3.7-2.4l3.9-2.2l9,5.9c10.2,6.6,11.4,7,14,4.4c1.9-1.8,2.2-3.4,1.3-5.6c-0.6-1.5-1.9-2.5-7.4-6.1c-6.5-4.3-6.6-4.3-5.5-5.1c0.6-0.4,3.3-2,5.9-3.5c2.6-1.5,4.9-3,5.3-3.4c0.9-1,1.2-3.8,0.6-5.3c-0.6-1.6-3.2-3.3-4.9-3.3c-0.7,0-3.9,1.5-7.1,3.4l-5.9,3.4l-0.3-2.3c-0.2-1.3-0.5-4.9-0.7-8.1c-0.3-5.3-0.4-5.9-1.6-7.2c-0.9-1-1.9-1.5-3.3-1.7c-1.9-0.2-2.2-0.1-3.9,1.5l-1.8,1.8l0.3,6.7c0.1,3.7,0.4,8.6,0.6,11.1l0.3,4.4l-3.8,2.1c-2,1.1-3.9,2-4,1.9c-0.1-0.1-0.4-3.6-0.7-7.7c-0.3-4.2-0.8-8.1-1.1-8.7c-0.3-0.7-1.4-1.6-2.4-2.1c-1.6-0.8-2.1-0.8-3.6-0.3c-0.9,0.3-2.1,1.1-2.7,1.9c-1,1.3-1,1.7-0.7,7.9c0.1,3.6,0.4,8.6,0.6,11l0.3,4.4l-6.2,3.5c-3.4,2-6.4,3.5-6.6,3.5c-0.2,0-9.3-5.1-20-11.3l-19.6-11.3v-7.4V53l9.3-4.6c6.1-3,9.6-5.1,10.3-6c2.4-3.3-0.1-8.2-4.2-8.2c-0.7,0-4.3,1.5-8.1,3.4c-3.8,1.9-6.9,3.4-7.1,3.4c-0.1,0-0.2-2.1-0.2-4.5V32l9.3-4.6c5.1-2.5,9.8-5.2,10.3-5.8c1.5-1.8,1.2-4.7-0.5-6.4c-2.5-2.6-3.3-2.5-11.6,1.6l-7.5,3.7v-6.4c0-7.2-0.5-9.2-2.9-10.4C141,2.9,139.5,2.8,137.8,3.4z M160.2,88.3l20,11.5v22.8c0,17.7-0.1,23-0.6,23.3c-1.3,1-39,22.6-39.5,22.6c-0.5,0-34.1-19.1-38.1-21.8l-1.9-1.2v-22.9V99.8L120,88.3c10.9-6.4,19.9-11.5,20-11.5C140.1,76.7,149.2,81.9,160.2,88.3z"/><path fill="#000000" d="M137.8,97.2c-0.6,0.2-1.6,1.2-2.1,2.1c-0.8,1.4-1,2.5-1,7.8c0,3.5-0.1,6.3-0.3,6.3c-0.1,0-2.5-1.3-5.3-2.9c-2.7-1.6-5.5-3.1-6.2-3.2c-3.1-0.8-6.7,2.9-6,6.1c0.4,2.1,1.6,3,7.4,6.4c4,2.3,5.1,3.2,4.6,3.5c-0.4,0.2-3,1.8-5.8,3.4c-4.2,2.4-5.2,3.3-5.8,4.7c-1,2.2-0.5,4.2,1.4,5.8c2.4,2,4.2,1.7,10.4-1.9l5.4-3.1l0.2,6.7c0.2,7.3,0.6,8.3,3.2,9.6c2,0.9,2.3,0.9,4.3,0c2.6-1.3,3-2.3,3.2-9.6l0.2-6.6l5.4,3.1c5.7,3.4,7.8,3.8,10,2.3c1.7-1.2,2.5-3.6,2-5.7c-0.5-2-1.2-2.5-7.6-6.2c-2.5-1.4-4.4-2.7-4.3-2.9c0.1-0.2,2.4-1.6,5-3.1c6-3.4,7.1-4.5,7.1-7.2c0-1.6-0.3-2.3-1.6-3.5c-2.3-2.4-4.1-2.2-10.4,1.5c-2.9,1.7-5.3,3-5.5,3c-0.2,0-0.3-2.6-0.3-5.9c0-6.7-0.6-8.8-2.9-10C141,96.6,139.5,96.6,137.8,97.2z"/></g></g></g>
</svg>