<svg version="1.1"    x="0px" y="0px" viewBox="0 0 256 256" enable-background="new 0 0 256 256" xml:space="preserve">
<g><g><g><path fill="#000000" d="M137.4,11.2c-9.6,3.2-16.9,10.8-19.7,20.4c-0.8,2.6-0.9,9.7-0.9,66.7v63.6l-3.5,3.7c-4.3,4.6-6.3,7.5-9,13.1c-3.5,7.3-4.5,11.9-4.5,21c-0.1,6.6,0.2,8.5,1.2,12c5,17.2,19.3,30.3,36.7,33.7c22.2,4.3,45.5-10.8,52.1-33.7c1-3.5,1.2-5.5,1.2-12c-0.1-9.1-1-13.6-4.5-21c-2.6-5.6-4.6-8.5-9-13.1l-3.5-3.7V98.2c0-57-0.1-64-0.9-66.7c-2.9-9.8-11-17.9-20.7-20.7C148.2,9.6,141.7,9.8,137.4,11.2z M153.8,23.2c3.3,1.7,5.9,4.3,7.5,7.8c1.1,2.5,1.1,2.6,1.3,70l0.1,67.6l1.6,0.9c5.3,3.2,11.6,11.1,13.9,17.8c1.9,5.6,2.3,13.7,0.7,19.9c-2.8,11-9.1,19.4-17.9,23.6c-5.8,2.8-9.2,3.6-15.6,3.6c-6.4,0-9.8-0.8-15.6-3.6c-18-8.6-24.7-34.5-13.2-51.3c2.5-3.7,7.1-8.3,10-10l1.6-0.9v-66.5c0-73-0.2-69.5,3.2-74.2c3.4-4.6,8.4-6.8,15.3-6.4C149.8,21.7,151.7,22.1,153.8,23.2z"/><path fill="#000000" d="M142.3,62.7c-2.8,2-2.8,0.3-2.8,59.7v55.3l-3.4,1.6c-6.6,3.1-12.2,10.3-13.4,17.6c-1.8,9.9,5.6,21.3,16.1,25c12.5,4.3,26.8-4.9,29.4-18.7c0.7-3.8,0-8.2-2.1-12.6c-1.9-4.1-7.1-9.1-11.3-11.1l-3.4-1.6v-55.3c0-59.5,0.1-57.7-2.8-59.7c-0.7-0.5-2.1-0.9-3.2-0.9C144.4,61.8,143,62.2,142.3,62.7z M148.7,188.8c5.2,1.2,8.1,5.2,8.1,11c0,7.1-4.4,11.6-11.3,11.6c-4.6,0-9.1-2.7-10.6-6.3c-1.1-2.5-0.9-8.1,0.3-10.8C137.3,189.7,142.7,187.4,148.7,188.8z"/><path fill="#000000" d="M67.8,16.5c-0.9,0.5-2,1.5-2.3,2.1c-0.9,1.6-0.7,4.5,0.3,5.9c1.8,2.5,3.5,2.8,19.1,2.8s17.3-0.2,19.1-2.8c1.1-1.6,1.1-4.8,0-6.4c-1.8-2.5-3.4-2.8-19.5-2.8C70.6,15.4,69.4,15.4,67.8,16.5z"/><path fill="#000000" d="M79.8,39.1c-2.1,0.9-3.2,2.8-3.2,5.3c0,2.1,0.3,2.6,1.8,4l1.7,1.6h10.7c9.3,0,10.8-0.2,11.8-1c3-2.4,3.2-5.9,0.5-8.5l-1.8-1.8l-10.2,0.1C85.5,38.7,80.4,38.9,79.8,39.1z"/><path fill="#000000" d="M67.5,62.4c-1.3,0.8-2.5,3.3-2.5,5.4c0,1.2,0.5,2.2,1.8,3.5l1.8,1.8H85h16.3l1.8-1.8c1.3-1.3,1.8-2.3,1.8-3.5c0-2.1-1.3-4.7-2.6-5.5C100.9,61.6,68.8,61.7,67.5,62.4z"/><path fill="#000000" d="M79.7,85.3c-1.8,0.8-3.4,3.2-3.4,5.1c0,2,1.6,4.4,3.5,5.2c2.6,1.1,19,1.1,21.6,0c2.3-1,3.6-2.8,3.6-5.2s-1.2-4.2-3.6-5.2C98.8,84.2,82.1,84.2,79.7,85.3z"/><path fill="#000000" d="M66.8,109.6c-2.6,2.6-2.4,6.2,0.5,8.5c1,0.9,2.8,1,17.6,1s16.6-0.1,17.6-1c3-2.4,3.2-5.9,0.5-8.5l-1.8-1.8H85H68.6L66.8,109.6z"/><path fill="#000000" d="M78.4,132.5c-1.5,1.4-1.8,1.9-1.8,4c0,1.9,0.3,2.8,1.5,3.9l1.5,1.5l10.9,0.2l10.8,0.2l1.8-1.8c1.4-1.4,1.9-2.4,1.9-3.6c0-2.1-1.3-4.7-2.6-5.5c-0.6-0.3-5.4-0.5-11.6-0.5H80.1L78.4,132.5z"/><path fill="#000000" d="M68.4,154.4c-0.9,0.4-2.1,1.3-2.6,2c-1.1,1.6-1.1,4.8,0,6.4c1.8,2.5,3.5,2.8,19.1,2.8s17.3-0.2,19.1-2.8c0.5-0.7,0.9-2.1,0.9-3.2c0-2.4-1.2-4.2-3.6-5.2C98.8,153.3,70.9,153.3,68.4,154.4z"/></g></g></g>
</svg>