<svg version="1.1"  x="0px" y="0px" viewBox="0 0 256 256" enable-background="new 0 0 256 256" xml:space="preserve">
<g><g><g><path fill="#000000" d="M39.5,10.4C32,12,25.6,16.8,22.3,23.6c-2.8,5.6-2.6-0.2-2.8,85.3l-0.1,78.8l-2.4,3.1c-2.7,3.6-5.1,8.3-6.2,12.5c-1.1,4.1-1.1,13,0,17.1c3.3,11.9,12.7,21.5,24.8,24.7c4.7,1.3,13.5,1.2,18-0.2c10.7-3.3,18.4-10.3,22.6-20.5c1-2.4,1.2-2.6,2.6-2.6c1,0,1.9-0.4,2.9-1.3c2-1.8,11.6-18.7,11.6-20.3c0-3-2-5.1-5-5.1c-2,0-3.4,1.5-6.7,7.2c-1.7,2.9-3,4.8-3.1,4.4c-0.1-0.4-0.6-2-1-3.7c-1.1-4.1-3.6-9-6.3-12.4l-2.3-2.8v-13.7v-13.7l3.1,4.6c4.3,6.4,13.1,15.1,19.7,19.5c8.4,5.6,16.6,9,26.6,11.3c4.2,0.9,6.1,1.1,14.8,1c10.9,0,14.5-0.5,23.2-3.4c24.5-8.2,43.5-29.4,48.8-54.6c4.2-20.3-0.1-41.3-11.9-58c-4-5.6-12-13.7-17.6-17.6C153.3,47.3,124.1,45,100,57.2C88.3,63,78.1,72,71,82.8l-2.2,3.4V59.1c0-30,0-30.5-2.9-35.9c-1.9-3.6-6.7-8.4-10.3-10.3C50.8,10.4,44.7,9.4,39.5,10.4z M50.7,21.5c3.3,1.6,5.3,3.7,7,7.4l1.2,2.5L59,78.3c0,25.7,0.1,61.8,0.1,80.1v33.3l2.7,3.1c5.2,5.8,7.3,11.6,6.8,18.4c-0.6,9.2-5.5,16.4-13.8,20.5c-13.1,6.4-28.4,0.3-33.6-13.3c-3.3-8.8-1.3-18.3,5.4-25.8l2.7-3l0.2-80.5l0.2-80.6l1-2.1c0.6-1.2,1.8-3,2.9-4.1C38.4,19.6,44.6,18.6,50.7,21.5z M142.7,60c20.5,3.3,38.1,16.2,47.4,34.8c2.2,4.3,4.9,13,5.9,18.5c1.1,7,0.7,17.9-1,24.5c-3,11.9-8.1,21.2-16.5,29.8c-9.2,9.5-19.9,15.4-33.1,18.3c-6.5,1.4-18.7,1.4-25.3-0.1c-13.1-2.9-23.2-8.3-32.4-17.5c-9.2-9.2-14.6-19.2-17.6-32.4c-1.4-6.2-1.5-18.2-0.2-24.5c4.7-23.3,21.4-42,43.7-49.1c2.4-0.7,5.9-1.6,7.8-1.9c1.9-0.3,3.8-0.6,4.2-0.7C127.7,59.2,139.3,59.4,142.7,60z"/><path fill="#000000" d="M40.9,100.1l-1.6,1.6v48v48l-2.5,1.4c-4.5,2.6-7.2,7.3-7.2,12.7c0,4,1.1,6.8,3.6,9.6c5.7,6.3,15.2,6.8,21.1,1.1c7.3-7.1,5.6-19.1-3.3-23.7l-2-1V150c0-36-0.1-47.9-0.6-48.9c-0.6-1.5-2.6-2.5-4.6-2.5C42.8,98.6,42,99,40.9,100.1z M47.6,208.3c2.3,2.3,1.7,6.1-1.2,7.7c-4.2,2.3-8.8-2.4-6.5-6.6C41.4,206.7,45.4,206.2,47.6,208.3z"/><path fill="#000000" d="M129.5,11.6l-1.6,1.6v11.6v11.6l1.6,1.6c1.1,1.1,2,1.6,3,1.6c1.8,0,3.9-1.2,4.6-2.6c0.7-1.6,0.7-22.8,0-24.4c-0.6-1.5-2.6-2.5-4.6-2.5C131.4,10,130.6,10.4,129.5,11.6z"/><path fill="#000000" d="M76.9,24.9c-1.9,0.8-3,2.4-3,4.4c0,2.3,10.2,20.1,12.2,21.4c1.9,1.2,4.2,0.8,5.9-1c2.2-2.5,1.9-3.6-4.2-14.2c-3-5.2-5.9-9.7-6.4-10C80,24.4,78.4,24.2,76.9,24.9z"/><path fill="#000000" d="M185.7,24.6c-1.7,0.3-2.7,1.8-8.3,11.4c-4.8,8.3-5.3,9.4-5.1,11c0.3,2.1,1,3,3,3.9c1.8,0.8,3.7,0.5,5-0.9c0.5-0.6,3.3-5.1,6.1-10c6-10.2,6.3-11.4,3.9-13.8C189,24.8,187.4,24.3,185.7,24.6z"/><path fill="#000000" d="M224.9,64.4c-2.2,0.9-18,10.3-19,11.3c-3,2.9-0.6,8.1,3.8,8.1c1.3,0,18.5-9.8,20.3-11.5c2.7-2.6,1.1-7.4-2.7-8.1C226.6,64.1,225.5,64.2,224.9,64.4z"/><path fill="#000000" d="M218.5,119.2c-2.5,2-2.7,5-0.5,7.3l1.6,1.6h11.6h11.6l1.6-1.6c2.3-2.3,2.1-5.3-0.5-7.3c-0.9-0.7-2.3-0.8-12.7-0.8C220.8,118.4,219.4,118.5,218.5,119.2z"/><path fill="#000000" d="M206.3,164c-1.8,1.7-2.2,4-1,5.9c1.2,2,19.1,12.2,21.4,12.2c3.2,0,5.4-3,4.5-6.1c-0.6-2-0.7-2.1-11.5-8.3C210,162.1,208.8,161.7,206.3,164z"/><path fill="#000000" d="M173.7,196.6c-2.5,2.5-2.3,3.4,3.7,13.9c2.9,5.1,5.9,9.7,6.5,10.2c2.4,2.2,6.5,0.9,7.6-2.4c0.6-2,0.5-2.4-5.7-13.1c-5.4-9.4-6.2-10.2-9.1-10.2C175.7,195,174.8,195.5,173.7,196.6z"/><path fill="#000000" d="M129.9,207.8c-1.9,1.5-2,2.4-2,13.8c0,10,0.1,11.1,0.9,12.4c1.8,2.9,5.7,3,7.9,0.3c0.9-1.1,0.9-1.9,0.9-12.9v-11.8l-1.3-1.3c-1.1-1.1-1.8-1.3-3.4-1.3C131.7,207,130.5,207.3,129.9,207.8z"/></g></g></g>
</svg>