<svg version="1.1" x="0px" y="0px" viewBox="0 0 256 256" enable-background="new 0 0 256 256" xml:space="preserve">
<g><g><g><path fill="#000000" d="M244.7,230.7L136.1,16.6c-1.5-3-4.6-4.9-7.9-4.9l0,0c-3.4,0-6.4,1.9-7.9,4.9L11,231.3c-1.6,3.2-1.2,7.2,1.2,9.9c2.4,2.7,6.2,3.8,9.6,2.6L128,207.9l106.2,35.9c0.9,0.3,1.9,0.5,2.9,0.5c0,0,0.1,0,0.1,0c4.9-0.1,8.8-4,8.8-8.9C246,233.6,245.5,232.1,244.7,230.7z M122.2,191l-85.3,28.9l85.3-167.8V191z M134.1,191V52.1l85.1,167.7L134.1,191z"/></g><g></g><g></g><g></g><g></g><g></g><g></g><g></g><g></g><g></g><g></g><g></g><g></g><g></g><g></g><g></g></g></g>
</svg>