<svg version="1.1" x="0px" y="0px" viewBox="0 0 256 256" enable-background="new 0 0 256 256" xml:space="preserve">
<g><g><g><g><path fill="#000000" d="M100.1 32.5L100 43.7 155.2 43.7 155.3 32.5 z"/><path fill="#000000" d="M189.8,43.7V21.2c0-6.2-5.1-11.2-11.2-11.2c-6.2,0-11.2,5-11.2,11.2v22.5c0,6.2,5.1,11.2,11.2,11.2C184.8,55,189.8,49.9,189.8,43.7z"/><path fill="#000000" d="M80.2,55c4.6,0,8.4-3.8,8.4-8.5V18.5c0-4.7-3.8-8.5-8.4-8.5h-5.6c-4.6,0-8.4,3.8-8.4,8.5v28c0,4.7,3.8,8.5,8.4,8.5L80.2,55L80.2,55z"/><path fill="#000000" d="M54.6,43.7l0-11.2H17.1c-3.9,0-7.1,3.3-7.1,7.3v198.9c0,4,3.2,7.3,7.1,7.3h221.9c3.9,0,7.1-3.3,7.1-7.3V39.8c0-4-3.2-7.3-7.1-7.3h-37.8l0,11.2h33.7v56.2H21.2V43.7H54.6z M55,234.8H26.1c-2.7,0-4.8-1.9-4.8-4.2v-29.5h33.7L55,234.8L55,234.8z M55,189.8H21.2v-33.7H55V189.8z M201,111.2h33.7v33.7H201V111.2z M201,156.1h33.7v33.7H201V156.1z M201,201.1h33.7v29.5c0,2.3-2.2,4.2-4.8,4.2H201V201.1L201,201.1z M156.1,111.2h33.7v33.7h-33.7V111.2z M156.1,156.1h33.7v33.7h-33.7V156.1z M156.1,201.1h33.7v33.7h-33.7V201.1z M111.1,111.2h33.7v33.7h-33.7V111.2z M111.1,201.1h33.7v33.7h-33.7V201.1z M66.2,111.2h33.7v33.7H66.2V111.2z M66.2,156.1h33.7v33.7H66.2V156.1z M66.2,201.1h33.7v33.7H66.2V201.1z M55,111.2v33.7H21.2v-33.7H55z"/></g></g><g></g><g></g><g></g><g></g><g></g><g></g><g></g><g></g><g></g><g></g><g></g><g></g><g></g><g></g><g></g></g></g>
</svg>