<svg version="1.1"    x="0px" y="0px" viewBox="0 0 256 256" enable-background="new 0 0 256 256" xml:space="preserve">
<g><g><g><path fill="#000000" d="M81.6,25.1C42.5,77.9,15.5,126,10.7,151.8c-1.2,6.3-0.8,18.1,1,25.3c7,29.3,28.9,50.7,58.5,57.1c7.5,1.6,22,1.6,29.6-0.1c14.3-3.1,26.2-9.2,36.7-19c17.7-16.4,26.9-42.9,22.5-64.5c-5-24.8-29.3-68.5-66.1-119.2C88.5,25.5,85,20.7,85,20.7C84.9,20.7,83.4,22.7,81.6,25.1z M93.1,68.7c14.8,22,25.1,39.3,33.6,56.3c7.5,15.1,11.2,25.2,12,32.9l0.3,2.4H85.1H31.2v-1.9c0-2.7,1.7-9.2,3.8-15c6.5-17.3,20.2-42.1,39.9-71.7c5.3-8.1,10-14.6,10.2-14.5C85.3,57.4,89,62.5,93.1,68.7z"/><path fill="#000000" d="M171.4,41.9v10.6h15.9h15.9V41.9V31.3h-15.9h-15.9V41.9z"/><path fill="#000000" d="M171.4,95.8v10.6h26.7h26.7V95.8V85.2h-26.7h-26.7V95.8z"/><path fill="#000000" d="M171.4,149.8v10.6h37.3H246v-10.6v-10.6h-37.3h-37.3V149.8z"/></g></g></g>
</svg>