<svg version="1.1" x="0px" y="0px" viewBox="0 0 256 256" enable-background="new 0 0 256 256" xml:space="preserve">
  <g><g><path fill="#000000" d="M239.5,208.2L200.4,169c10.3-16.1,16.5-35.1,16.5-55.6C216.9,56.3,170.6,10,113.4,10C56.3,10,10,56.3,10,113.4c0,57.1,46.3,103.4,103.4,103.4c20.5,0,39.5-6.1,55.6-16.5l39.1,39.1c8.6,8.6,22.7,8.6,31.4,0C248.2,230.9,248.2,216.8,239.5,208.2z M113.4,187.3c-40.8,0-73.9-33.1-73.9-73.9c0-40.8,33.1-73.9,73.9-73.9s73.9,33.1,73.9,73.9C187.3,154.2,154.2,187.3,113.4,187.3z"/></g></g>
</svg>