<svg version="1.1"    x="0px" y="0px" viewBox="0 0 256 256" enable-background="new 0 0 256 256" xml:space="preserve">
<g><g><g><g><path fill="#000000" d="M126.2,85.2c3.6,0,6.1-2.4,6.1-6.1V54.6c0-3.6-2.4-6.1-6.1-6.1c-3.7,0-6.1,2.4-6.1,6.1V79C120.1,82.8,123.7,85.2,126.2,85.2z"/><path fill="#000000" d="M206.9,164.6c0,3.6,2.4,6.1,6.1,6.1h24.4c3.6,0,6.1-2.4,6.1-6.1c0-3.7-2.4-6.1-6.1-6.1H213C209.3,158.6,206.9,162.2,206.9,164.6z"/><path fill="#000000" d="M191,108.4l17.1-17.1c2.4-2.4,2.4-6.1,0-8.6c-2.4-2.4-6.1-2.4-8.6,0l-17.1,17.1c-2.4,2.4-2.4,6.1,0,8.6C184.9,110.9,189.7,110.9,191,108.4z"/><path fill="#000000" d="M60.2,170.8h31.8l35.5-30.6l35.5,30.6h30.6c0-2.4,0-3.6,0-6.1c0-36.7-30.6-67.2-67.2-67.2C89.5,97.4,59,128,59,164.6C59,167.1,59,168.3,60.2,170.8z"/><path fill="#000000" d="M236.2,195.2h-67.3l-42.7-36.7l-42.8,36.7H17.3c-3.6,0-6.1,2.4-6.1,6.1c0,3.7,2.4,6.1,6.1,6.1h74.6l14.6-12.2l22-18.3l22,18.3l14.7,12.2h74.6c3.6,0,6.1-2.4,6.1-6.1C243.5,197.7,239.8,195.2,236.2,195.2z"/><path fill="#000000" d="M16.1,170.8h24.4c3.6,0,6.1-2.4,6.1-6.1c0-3.7-2.4-6.1-6.1-6.1H16.1c-3.6,0-6.1,3.6-6.1,6.1C10.1,168.3,12.5,170.8,16.1,170.8z"/><path fill="#000000" d="M61.4,108.4c2.4,2.4,6.1,2.4,8.6,0s2.4-6.1,0-8.6L52.8,82.8c-2.4-2.4-6.1-2.4-8.6,0c-2.4,2.4-2.4,6.1,0,8.6L61.4,108.4z"/></g></g><g></g><g></g><g></g><g></g><g></g><g></g><g></g><g></g><g></g><g></g><g></g><g></g><g></g><g></g><g></g></g></g>
</svg>