<svg version="1.1"    x="0px" y="0px" viewBox="0 0 256 256" enable-background="new 0 0 256 256" xml:space="preserve">
<g><g><g><path fill="#000000" d="M125.4,23.1l-1.3,1.1v13.5v13.5l1.3,1.1c0.7,0.6,1.9,1.1,2.6,1.1c0.7,0,1.9-0.5,2.6-1.1l1.3-1.1V37.6V24.2l-1.3-1.1c-0.7-0.6-1.9-1.1-2.6-1.1C127.3,22,126.1,22.5,125.4,23.1z"/><path fill="#000000" d="M163.6,42.4c-1.2,1.3-5.7,12.4-5.7,14c0,2.8,4.2,4.5,6.4,2.6c1.4-1.2,6.2-13.2,5.8-14.5c-0.6-1.9-2.1-3.1-3.9-3.1C165.1,41.3,164.3,41.7,163.6,42.4z"/><path fill="#000000" d="M86.3,42.4c-2.7,1.6-2.7,3.2,0.3,10.2c2.8,6.5,4.3,8.4,6.6,8c1.7-0.3,3.5-2.2,3.5-3.5c0-1.6-5.1-13-6.3-14.2C89.1,41.7,87.7,41.5,86.3,42.4z"/><path fill="#000000" d="M38.6,50.8c-0.6,0.7-1,1.9-1,2.7c0,1.2,1.5,2.9,12.4,13.8c13.1,13,13.5,13.3,16.1,11.9c1.4-0.8,2.2-3,1.6-4.6c-0.3-0.7-5.9-6.6-12.4-13.1C43.6,49.8,43.3,49.6,41.5,49.6C40,49.6,39.4,49.9,38.6,50.8z"/><path fill="#000000" d="M200.8,61.5c-6.5,6.5-12.1,12.4-12.4,13.1c-0.6,1.6,0.1,3.8,1.6,4.6c2.6,1.4,3,1.1,16.1-11.9c11.2-11.2,12.4-12.5,12.4-13.9c0-2.1-1.8-3.8-4-3.8C212.7,49.6,212,50.2,200.8,61.5z"/><path fill="#000000" d="M117.2,58c-4.9,0.6-14.2,3-18.9,4.8c-29,11.5-48.7,37.1-52.4,68.2c-1.2,10.6,0.6,26.4,4.1,35.5c0.2,0.6-2.8,0.6-18.5,0.6H12.7l-1.3,1.3c-1.7,1.8-1.8,3.8-0.2,5.3l1.1,1.2H128h115.7l1.1-1.2c1.6-1.7,1.5-3.6-0.2-5.3l-1.3-1.3h-18.8c-17.2,0-18.8,0-18.5-0.7c0.7-2,2.6-9.1,3.4-12.9c1.2-5.8,1.2-21.7,0-27.8c-3.3-17.4-10.9-31.9-23.1-44.2c-10.9-10.9-23.1-17.9-37.8-21.7c-3.3-0.8-7.8-1.8-10.1-2C133.5,57.4,121.8,57.4,117.2,58z M132.1,115.3l0.1,22.6l10.3-10.3l10.2-10.2l2.8,2.8l2.8,2.8L143.1,138L128,153.1L112.9,138l-15.1-15.1l2.8-2.8l2.8-2.8l10.2,10.2l10.3,10.3v-22.4c0-12.3,0.1-22.5,0.3-22.7s2-0.2,4.1-0.2l3.7,0.1L132.1,115.3z"/><path fill="#000000" d="M221.1,96.2c-3,0.8-12.5,5.3-13.1,6.2c-1.4,2-0.6,4.6,1.7,5.6c1.8,0.7,2.2,0.6,9.5-2.5c5-2.1,5.8-2.6,6.5-4c0.6-1.4,0.6-1.7,0-3.1C224.8,96.6,222.9,95.7,221.1,96.2z"/><path fill="#000000" d="M31.4,98.1c-2.2,1.2-2.8,4-1.2,5.8c0.4,0.6,3.7,2.1,7.3,3.6c6.1,2.4,6.6,2.6,8,2c2.7-1.2,3.3-4.6,1.1-6.5c-1.1-0.9-12.4-5.5-13.5-5.5C32.7,97.6,31.9,97.9,31.4,98.1z"/><path fill="#000000" d="M11.3,137.2c-1.4,1.4-1.7,2.7-0.8,4.3c1.1,2.1,1.3,2.1,15.3,2.2h13.3l1.1-1.2c1.6-1.5,1.6-4,0-5.5l-1.1-1.2H25.9H12.7L11.3,137.2z"/><path fill="#000000" d="M215.8,137c-0.8,0.7-1.2,1.6-1.2,2.8c0,1.2,0.4,2,1.2,2.8l1.1,1.2h12.9c13.7,0,14.8-0.1,15.7-2.2c0.8-1.8,0.6-2.9-0.8-4.3l-1.3-1.3h-13.2h-13.2L215.8,137z"/><path fill="#000000" d="M31,188.2c-1.9,1.8-1.5,4.8,0.7,6c1.9,1,190.7,1,192.6,0c2.3-1.2,2.6-4.1,0.7-6l-1.1-1.2H128H32.1L31,188.2z"/><path fill="#000000" d="M51.4,207.1c-1.8,1-2.5,3.1-1.8,4.8c0.3,0.8,1,1.6,1.4,1.8c0.5,0.3,29.1,0.5,77,0.5c61.8,0,76.3-0.1,77-0.6c2.2-1.7,1.9-5.3-0.6-6.5C202.5,206,53.3,206,51.4,207.1z"/><path fill="#000000" d="M66.5,227.2c-1,0.8-1.2,1.5-1.2,2.9c0,1.4,0.3,2.1,1.2,2.9l1.2,1.1H128h60.3l1.2-1.1c1.8-1.5,1.8-4.2,0-5.7l-1.2-1.1H128H67.7L66.5,227.2z"/></g></g></g>
</svg>