<svg version="1.1" x="0px" y="0px" viewBox="0 0 256 256" enable-background="new 0 0 256 256" xml:space="preserve"> 
<g><g><g><path d="M117.8,57.2c-17.1,1.5-36.5,8.2-52.7,18.2c-17,10.5-35,27.6-47.9,45.2c-7.1,9.8-8.1,12.6-6.6,17.5c1.5,4.4,14.2,17.9,25.2,26.7c47.3,38.2,104.8,44.9,156.6,18.3c17.8-9.2,38.1-25.2,49.3-39.2c6.9-8.5,6.1-11.9-7.1-28.9c-5.3-7-21.6-23.5-28.4-28.9C179,64.5,148.3,54.5,117.8,57.2z M131.8,82.3c2.8,1.3,4.1,3.7,4.1,7.3c0,2.5-0.3,3.3-1.7,4.9c-2,2.2-3.8,2.9-9,3.4c-10.8,1-19.4,10-20.8,21.6c-0.6,5.2-1,6.2-3.3,8.1c-2.4,2-5.2,2.4-8.2,1c-3.5-1.6-4.8-3.8-4.8-8.8c0-16.2,13-32.8,28.9-37c4.9-1.3,5.3-1.3,9.2-1.4C128.6,81.4,130.6,81.7,131.8,82.3z M83.1,92.3c-2.8,4.7-3.4,5.8-4.8,9.6c-3.6,9.1-4.6,20.3-2.6,29.8c2.3,10.9,6.9,19.6,14.7,27.3c7.3,7.3,15.2,11.8,25.3,14.4c5.9,1.5,18.8,1.5,24.7,0c27.6-7,45-33.5,40.2-61.1c-1.2-7-3.3-12.4-7.3-19.2l-1.6-2.8l2.8,1.4c12.4,6.3,30.2,21.8,42.1,36.6l4.4,5.6l-6.5,6.2c-16,15.5-35.4,26.8-55.9,32.7c-17.6,5.1-39,5.5-56.9,1.1c-22.2-5.4-46-19.1-62.8-36.1l-3.9-4l4.4-5.5c9.4-11.7,22.1-23.5,33.6-31.3c4.8-3.2,10.2-6.5,11-6.6C84.2,90.3,83.8,91.2,83.1,92.3z"/></g></g></g>
</svg>