<svg version="1.1"    x="0px" y="0px" viewBox="0 0 256 256" enable-background="new 0 0 256 256" xml:space="preserve">
<g><g><g><path fill="#000000" d="M172,49.6c-18.8,2.6-33.6,18.8-34,37.2c-0.1,3.9-0.1,4,1.4,5.3c2.7,2.4,6.8,1.4,7.8-2c0.3-0.8,0.6-3,0.7-4.7c0.8-10.6,8.7-20.5,19.6-24.6c4.1-1.5,11.8-1.9,16.4-0.8c16.9,4,26.8,22.3,20.9,38.6c-1.7,4.6-3.4,7.2-7.2,11c-3.7,3.7-7,5.7-12.3,7.5l-3.2,1.1l-84.6,0.2c-46.6,0.1-85,0.4-85.4,0.6c-1.1,0.6-2.2,2.7-2.2,4.5c0,1,0.5,1.9,1.6,3l1.6,1.6H97c80.1,0,84,0,88-0.9c8.2-1.7,14.7-5.3,20.6-11.5c7.7-8,11.4-18.1,10.8-28.9c-0.4-5.7-1.3-9.5-3.6-14.4c-6.3-13.6-18.8-22-33.7-22.9C176.8,49.3,173.6,49.4,172,49.6z"/><path fill="#000000" d="M12.9,138.4c-1.5,0.6-2.9,2.7-2.9,4.4c0,1.7,1.4,3.7,3,4.4c1.3,0.6,16.6,0.6,104.1,0.6c92.9,0,102.7,0.1,105,0.7c3.5,1.1,5.9,2.6,8.7,5.5c7.1,7.6,7.1,18.9,0,26.7c-7.7,8.4-21.1,8.3-28.7-0.1c-3-3.3-4.3-6.4-5.1-11.5c-0.8-5.2-1.8-6.5-5-6.5c-4.7,0-6,4-4,11.7c1.5,5.9,3.4,9.3,7.8,13.7c6,6,12.3,8.7,20.7,8.7c8.3,0,14.7-2.7,20.6-8.5c6.3-6.2,9.3-14,8.8-22.4c-0.7-10.8-6.7-20-16.1-24.7c-7.4-3.7,0.8-3.4-113.5-3.4C30.5,137.7,14.1,137.8,12.9,138.4z"/><path fill="#000000" d="M11.6,159.1c-1.1,1.1-1.6,2-1.6,3c0,1.8,1.1,3.9,2.2,4.5c0.5,0.2,33,0.5,72.3,0.6l71.5,0.2l2.6,1.2c3.5,1.6,6.5,4.7,7.7,8.1c1.4,3.6,1.1,8.5-0.6,11.9c-4.4,8.5-15.3,10.7-22.7,4.6c-2.6-2.2-4.7-6.4-5.2-10.4c-0.4-3.7-1.8-5.5-4.5-5.5c-3.4,0-5.3,2-5.3,5.5c0,7.1,4.6,15.4,10.9,19.6c7.6,5,16.6,5.5,24.9,1.4c12.9-6.3,17.2-23.3,9.1-35.5c-3.3-5-9.5-9.2-15.4-10.4c-1.7-0.4-23.7-0.5-73.5-0.5H13.1L11.6,159.1z"/></g></g></g>
</svg>